<svg xmlns="http://www.w3.org/2000/svg" width="319" height="254" viewBox="0 0 319 254"><rect width="100%" height="100%" fill="#DDDDDD"/><path fill="#999999" d="m66.72 120.615-2.8-.49q.33-2.24 1.25-3.93.92-1.69 2.31-2.81 1.39-1.13 3.18-1.7 1.8-.57 3.86-.57 2.15 0 3.88.61t2.96 1.7q1.23 1.08 1.88 2.55.66 1.46.66 3.16 0 1.48-.34 2.61-.33 1.13-.95 1.97-.63.83-1.55 1.41-.93.59-2.09.97 2.8.88 4.17 2.69 1.38 1.81 1.38 4.54 0 2.32-.86 4.1-.86 1.79-2.32 3-1.46 1.22-3.39 1.84-1.92.62-4.07.62-2.35 0-4.09-.53-1.74-.54-3.03-1.59-1.29-1.06-2.19-2.58-.91-1.53-1.55-3.53l2.34-.97q.93-.39 1.73-.2.81.18 1.18.87.38.75.85 1.48.46.73 1.1 1.3.65.57 1.52.93.87.35 2.07.35 1.36 0 2.37-.44t1.69-1.15q.67-.71 1.01-1.58.33-.87.33-1.75 0-1.12-.24-2.03-.23-.92-.99-1.56-.75-.65-2.16-1.01-1.4-.37-3.77-.37v-3.78q1.96-.02 3.25-.37 1.29-.34 2.05-.95.76-.62 1.06-1.48.3-.86.3-1.89 0-2.19-1.22-3.33-1.23-1.14-3.27-1.14-.94 0-1.74.27t-1.43.75q-.63.48-1.06 1.13-.43.64-.65 1.42-.36.99-.96 1.31-.59.32-1.66.15Zm36.48 17.95h5.59v3.98h-17.2v-3.98h6.3v-18.12q0-1.08.07-2.22l-4.47 3.74q-.39.31-.77.38-.37.08-.71.01-.33-.06-.59-.22-.26-.17-.39-.36l-1.67-2.3 9.48-8.06h4.36v27.15Zm15.38-17.78q0 2.6 1.34 3.97 1.34 1.36 3.82 1.36 1.29 0 2.3-.4 1.01-.41 1.69-1.12.69-.71 1.05-1.68.35-.97.35-2.09 0-1.26-.38-2.26-.39-1-1.1-1.69-.71-.69-1.69-1.05-.98-.37-2.14-.37-1.2 0-2.17.4t-1.66 1.1q-.68.71-1.05 1.69-.36.98-.36 2.14Zm-2.61 21.76 9.66-12.06q.36-.45.69-.88.32-.43.62-.86-1.08.68-2.37 1.04-1.29.35-2.7.35-1.62 0-3.17-.55-1.54-.56-2.75-1.69-1.2-1.13-1.94-2.8-.74-1.66-.74-3.9 0-2.09.77-3.91.77-1.83 2.17-3.21 1.4-1.37 3.35-2.17 1.96-.79 4.33-.79 2.38 0 4.29.75 1.9.75 3.24 2.11 1.35 1.35 2.07 3.24.72 1.89.72 4.15 0 1.44-.25 2.73t-.7 2.49q-.45 1.19-1.1 2.33-.64 1.14-1.44 2.26l-7.11 10.14q-.37.52-1.1.88-.73.35-1.66.35h-4.88Zm53.52-7.12-2.82 2.78-7.29-7.29-7.35 7.33-2.82-2.77 7.36-7.38-7.01-7.01 2.79-2.79 7.01 7.01 6.97-6.97 2.84 2.8-6.99 6.98 7.31 7.31Zm25.88 2.17h7.98q.86 0 1.37.49.5.48.5 1.28v3.18h-21.33v-1.76q0-.54.23-1.13.22-.59.72-1.07l9.44-9.46q1.18-1.2 2.12-2.3.93-1.09 1.55-2.17.63-1.07.96-2.18.33-1.11.33-2.33 0-1.12-.32-1.97-.32-.85-.91-1.43-.59-.58-1.42-.87-.83-.29-1.86-.29-.95 0-1.75.27-.81.27-1.43.75-.63.48-1.06 1.13-.43.64-.64 1.42-.37.99-.95 1.31-.58.32-1.67.15l-2.8-.49q.32-2.24 1.25-3.93.92-1.69 2.31-2.81 1.39-1.13 3.18-1.7 1.8-.57 3.86-.57 2.15 0 3.93.63 1.79.64 3.06 1.8 1.27 1.16 1.98 2.79.7 1.64.7 3.63 0 1.72-.5 3.19-.51 1.46-1.35 2.79-.85 1.33-1.99 2.58-1.14 1.25-2.39 2.54l-7.01 7.16q1.01-.3 2.01-.46 1-.17 1.9-.17Zm21.65-21.32-1.09 6.47q1.03-.22 1.98-.31.94-.1 1.82-.1 2.45 0 4.33.73 1.87.73 3.13 2.02 1.27 1.29 1.92 3.02.64 1.73.64 3.73 0 2.48-.87 4.52-.87 2.04-2.42 3.49-1.55 1.45-3.66 2.25-2.12.79-4.61.79-1.47 0-2.78-.3-1.31-.3-2.46-.8-1.15-.51-2.13-1.16-.98-.66-1.75-1.39l1.63-2.26q.52-.73 1.36-.73.54 0 1.09.34.56.35 1.28.76.72.41 1.7.75t2.36.34q1.46 0 2.58-.47 1.11-.47 1.86-1.32.74-.85 1.11-2.02.38-1.17.38-2.55 0-2.54-1.47-3.97-1.48-1.43-4.36-1.43-2.21 0-4.53.82l-3.31-.95 2.58-15.09h15.35v2.26q0 1.14-.71 1.85-.71.71-2.41.71h-8.54Zm20.97 14.55h9.46v-10.17q0-1.44.19-3.18l-9.65 13.35Zm14.08 0h3.91v3.08q0 .43-.28.74t-.79.31h-2.84v7.59h-4.62v-7.59h-13.12q-.54 0-.94-.33-.41-.34-.52-.83l-.56-2.69 14.73-19.67h5.03v19.39Z"/></svg>