<svg xmlns="http://www.w3.org/2000/svg" width="340" height="240" viewBox="0 0 340 240"><rect width="100%" height="100%" fill="#FFFFFF"/><path fill="#D3FF41" d="m72.89 113.315-2.92-.52q.33-2.34 1.3-4.1.97-1.77 2.42-2.95 1.45-1.18 3.33-1.78 1.88-.59 4.04-.59 2.25 0 4.06.64 1.81.64 3.09 1.77 1.29 1.14 1.97 2.67.69 1.53.69 3.31 0 1.55-.35 2.73t-1 2.06q-.65.88-1.62 1.49-.97.6-2.18 1.01 2.92.92 4.36 2.81 1.44 1.89 1.44 4.75 0 2.43-.9 4.3-.9 1.86-2.43 3.13-1.53 1.28-3.54 1.93-2.02.65-4.27.65-2.45 0-4.27-.56-1.82-.57-3.17-1.67-1.35-1.1-2.3-2.7-.95-1.6-1.62-3.69l2.45-1.01q.97-.4 1.81-.21.85.19 1.23.91.4.78.89 1.55.48.77 1.16 1.36.67.6 1.58.97t2.18.37q1.41 0 2.47-.46 1.06-.46 1.77-1.2.71-.75 1.05-1.66.35-.91.35-1.83 0-1.17-.24-2.13-.25-.95-1.04-1.63-.79-.67-2.26-1.06-1.48-.38-3.95-.38v-3.96q2.05-.02 3.4-.38t2.15-1q.8-.64 1.11-1.54.31-.9.31-1.99 0-2.29-1.28-3.48t-3.42-1.19q-.99 0-1.82.28-.83.28-1.5.78-.66.51-1.11 1.19-.45.67-.68 1.48-.38 1.03-1 1.37-.61.34-1.74.16Zm26.87 10.69h9.89v-10.64q0-1.51.21-3.33l-10.1 13.97Zm14.73 0h4.1v3.22q0 .45-.3.77-.29.33-.83.33h-2.97v7.94h-4.84v-7.94H95.93q-.56 0-.99-.35-.43-.35-.54-.87l-.58-2.81 15.41-20.59h5.26v20.3Zm30.22-4.01q0 4.26-.91 7.39-.91 3.14-2.52 5.19-1.61 2.05-3.8 3.05-2.2 1-4.74 1t-4.71-1q-2.18-1-3.77-3.05-1.6-2.05-2.5-5.19-.9-3.13-.9-7.39 0-4.27.9-7.4.9-3.13 2.5-5.17 1.59-2.05 3.77-3.05 2.17-1 4.71-1t4.74 1q2.19 1 3.8 3.05 1.61 2.04 2.52 5.17.91 3.13.91 7.4Zm-5.74 0q0-3.53-.52-5.85-.51-2.31-1.38-3.69-.87-1.37-1.99-1.92-1.13-.55-2.34-.55-1.19 0-2.31.55-1.11.55-1.97 1.92-.85 1.38-1.36 3.69-.5 2.32-.5 5.85 0 3.54.5 5.85.51 2.32 1.36 3.69.86 1.38 1.97 1.93 1.12.55 2.31.55 1.21 0 2.34-.55 1.12-.55 1.99-1.93.87-1.37 1.38-3.69.52-2.31.52-5.85Zm41.47 8.82-2.95 2.91-7.63-7.63-7.69 7.67-2.95-2.9 7.7-7.72-7.34-7.33 2.93-2.93 7.33 7.34 7.29-7.29 2.97 2.92-7.31 7.31 7.65 7.65Zm27.09 2.28h8.35q.9 0 1.43.5.52.51.52 1.34v3.33h-22.32v-1.84q0-.57.24-1.19t.75-1.11l9.88-9.9q1.24-1.26 2.22-2.41.98-1.14 1.63-2.27.65-1.12 1-2.28.35-1.16.35-2.45 0-1.16-.34-2.05-.34-.89-.95-1.5-.62-.61-1.49-.91-.87-.3-1.95-.3-.99 0-1.83.28-.84.28-1.5.78-.65.51-1.1 1.19-.45.67-.67 1.48-.39 1.03-.99 1.37-.61.34-1.76.16l-2.92-.52q.33-2.34 1.3-4.1.97-1.77 2.42-2.95 1.45-1.18 3.33-1.78 1.88-.59 4.04-.59 2.25 0 4.12.66 1.86.66 3.19 1.88 1.33 1.21 2.07 2.92.74 1.71.74 3.8 0 1.81-.52 3.34-.53 1.52-1.42 2.92-.89 1.4-2.08 2.7-1.2 1.3-2.5 2.66l-7.34 7.49q1.06-.32 2.11-.49 1.04-.16 1.99-.16Zm18.49-7.09h9.9v-10.64q0-1.51.21-3.33l-10.11 13.97Zm14.74 0h4.1v3.22q0 .45-.3.77-.29.33-.83.33h-2.97v7.94h-4.84v-7.94H222.2q-.56 0-.99-.35-.43-.35-.54-.87l-.59-2.81 15.42-20.59h5.26v20.3Zm30.22-4.01q0 4.26-.91 7.39-.91 3.14-2.52 5.19-1.61 2.05-3.8 3.05-2.2 1-4.74 1t-4.71-1q-2.18-1-3.77-3.05-1.6-2.05-2.5-5.19-.9-3.13-.9-7.39 0-4.27.9-7.4.9-3.13 2.5-5.17 1.59-2.05 3.77-3.05 2.17-1 4.71-1t4.74 1q2.19 1 3.8 3.05 1.61 2.04 2.52 5.17.91 3.13.91 7.4Zm-5.74 0q0-3.53-.52-5.85-.51-2.31-1.38-3.69-.87-1.37-1.99-1.92-1.13-.55-2.34-.55-1.19 0-2.31.55-1.11.55-1.97 1.92-.85 1.38-1.36 3.69-.5 2.32-.5 5.85 0 3.54.5 5.85.51 2.32 1.36 3.69.86 1.38 1.97 1.93 1.12.55 2.31.55 1.21 0 2.34-.55 1.12-.55 1.99-1.93.87-1.37 1.38-3.69.52-2.31.52-5.85Z"/></svg>