<svg xmlns="http://www.w3.org/2000/svg" width="106" height="77" viewBox="0 0 106 77"><rect width="100%" height="100%" fill="#DDDDDD"/><path fill="#999999" d="M25.615 43.075h2.21v1.57h-6.8v-1.57h2.49v-7.17q0-.42.02-.87l-1.77 1.48q-.15.11-.3.14-.15.03-.28.01-.13-.03-.23-.09t-.15-.14l-.67-.91 3.75-3.19h1.73v10.74Zm12.7-4.58q0 1.61-.34 2.8-.34 1.18-.95 1.96-.61.77-1.44 1.15-.83.38-1.79.38-.96 0-1.78-.38-.82-.38-1.42-1.15-.61-.78-.95-1.96-.34-1.19-.34-2.8 0-1.61.34-2.79t.95-1.96q.6-.77 1.42-1.15.82-.38 1.78-.38.96 0 1.79.38.83.38 1.44 1.15.61.78.95 1.96.34 1.18.34 2.79Zm-2.16 0q0-1.33-.2-2.21-.19-.87-.52-1.39-.33-.52-.75-.73-.43-.2-.89-.2-.45 0-.87.2-.42.21-.74.73-.33.52-.52 1.39-.19.88-.19 2.21 0 1.34.19 2.21.19.88.52 1.4.32.52.74.73.42.2.87.2.46 0 .89-.2.42-.21.75-.73t.52-1.4q.2-.87.2-2.21Zm10.67-6.14-3.64 4.46-.43.53q.36-.18.77-.28.41-.1.89-.1.7 0 1.35.23.66.23 1.16.7.51.46.81 1.15.31.69.31 1.6 0 .86-.32 1.62-.31.75-.88 1.31-.57.56-1.37.88-.81.33-1.78.33-.98 0-1.76-.32-.79-.31-1.34-.88-.55-.56-.84-1.36-.3-.79-.3-1.76 0-.87.36-1.78.35-.92 1.09-1.9l2.93-3.94q.15-.2.45-.35.29-.14.67-.14h1.87Zm-3.17 10.71q.5 0 .92-.17.42-.17.73-.48.3-.3.47-.72.17-.41.17-.89 0-.53-.16-.95-.16-.42-.46-.71-.3-.3-.72-.45-.41-.15-.91-.15-.51 0-.91.17-.41.17-.7.47-.29.3-.45.71-.16.42-.16.89 0 .51.14.93.14.42.41.72.28.3.69.46.41.17.94.17Zm18.02-1.23-1.11 1.09-2.88-2.88-2.91 2.9-1.11-1.1 2.9-2.91-2.77-2.77 1.11-1.11 2.77 2.77 2.75-2.75 1.12 1.1-2.76 2.77 2.89 2.89Zm5.84-9.48h8.49v.91q0 .41-.08.66-.09.25-.17.42l-4.66 9.59q-.14.29-.41.5-.26.21-.7.21h-1.53l4.76-9.39q.16-.29.32-.53.15-.25.35-.47h-5.88q-.2 0-.34-.14-.15-.15-.15-.34v-1.42Zm9.86 0h8.49v.91q0 .41-.08.66-.09.25-.17.42l-4.66 9.59q-.14.29-.41.5-.26.21-.7.21h-1.52l4.75-9.39q.16-.29.32-.53.15-.25.35-.47h-5.88q-.2 0-.34-.14-.15-.15-.15-.34v-1.42Z"/></svg>