<svg xmlns="http://www.w3.org/2000/svg" width="160" height="39.887" viewBox="0 0 160 39.887">
  <defs>
    <style>
      .cls-1 {
        fill: #ffbf20;
      }

      .cls-2 {
        fill: #fff;
      }

      .cls-3 {
        fill: #1e1e1e;
      }

      .cls-4 {
        fill: #101010;
      }
    </style>
  </defs>
  <g id="Group_6" data-name="Group 6" transform="translate(-250 -473)">
    <path id="Path_17" data-name="Path 17" class="cls-1" d="M281.864,473H258.023A8.026,8.026,0,0,0,250,481.023v23.841a8.026,8.026,0,0,0,8.023,8.023h23.841a8.026,8.026,0,0,0,8.023-8.023V481.023A8.026,8.026,0,0,0,281.864,473Zm-15.9,23.22c-.131-.009-.254-.032-.376-.05s-.222-.068-.335-.1a1.115,1.115,0,0,1-.168-.077c-.054-.027-.113-.059-.172-.091a1.278,1.278,0,0,1-.163-.109c-.054-.041-.118-.082-.172-.127.1.068.2.136.313.2a1,1,0,0,0-.218-.236c-.054-.045-.1-.091-.154-.141a1.808,1.808,0,0,1-.163-.159l.05.082.063.077a2.5,2.5,0,0,1-.671-.784,1.04,1.04,0,0,0,.073.14.625.625,0,0,1-.1-.118c-.027-.045-.059-.1-.091-.145.14.15-.032-.141-.032-.209,0,.141-.186-.15-.24-.213.018-.077-.181-.177-.141-.218-.059-.041-.05.032-.036.045a.329.329,0,0,0-.272-.154l-.009,0,0,0a.016.016,0,0,1-.009,0s-.009,0-.014-.009a.036.036,0,0,0-.009-.014s0,0-.018.009l-.086.045-.041-.032v.068c-.091-.1-.227.068-.322,0-.023.063-.1.045-.181.163.091.023.19-.086.263-.072a3.541,3.541,0,0,0-.48.4c-.027.027-.054.054-.082.086s-.054.054-.091.1c-.068.082-.141.163-.213.245-.154.177-.326.376-.521.589a5.457,5.457,0,0,1-.689.621,3.6,3.6,0,0,1-.857.494,2.265,2.265,0,0,1-.227.082,1.771,1.771,0,0,1-.222.059,2.969,2.969,0,0,1-.993.063c.15,0,.1-.036-.045-.068-.136-.014-.276-.023-.408-.045.041.032.154.05.086.059a1.544,1.544,0,0,1-.258-.068.373.373,0,0,0-.2-.027c.027-.032-.222-.131-.213-.141a.623.623,0,0,1-.208-.082c-.041-.023-.086-.05-.131-.077s-.091-.059-.136-.091-.091-.063-.131-.1-.086-.063-.122-.091a.7.7,0,0,0-.213-.1c-.2-.172-.213-.208-.222-.249s-.023-.086-.2-.3l-.091.023s-.032-.045-.082-.118a3.551,3.551,0,0,1-.2-.295,3.693,3.693,0,0,1-.417-.993,2.321,2.321,0,0,1-.059-.277q-.027-.136-.041-.258c-.009-.086-.018-.168-.023-.245s-.009-.15-.009-.213a3.344,3.344,0,0,0,0-.408.76.76,0,0,0,.1-.208,4.549,4.549,0,0,1,.376-1.355s.009,0,.023,0a5.257,5.257,0,0,1,.639-1.07,6.02,6.02,0,0,1,.82-.87,9.825,9.825,0,0,1,1.827-1.237c.231-.127.081.041.281-.068a1.471,1.471,0,0,0,.354-.24c-.032.009-.1.045-.068.009a1.86,1.86,0,0,0,.231-.1c-.059.059-.163.141-.027.086l-.222.113c.009.05.073-.045.272-.127l.154-.086.009.045c.476-.054.739.363.889.784a3.951,3.951,0,0,1,.186.866l-.05.041-.435.077c-.267.177-.567.34-.839.49s-.526.295-.712.417c-.077.063-.218.163-.354.285a1.906,1.906,0,0,0-.34.367l-.027-.041a3.158,3.158,0,0,0-.462.762l-.014-.014c-.063.1-.15.394-.054.394a1.44,1.44,0,0,1-.154.209.369.369,0,0,0-.054.1.638.638,0,0,0-.041.181l.023-.045a3.985,3.985,0,0,0-.082.485,2.118,2.118,0,0,0,0,.34c0,.032,0,.059.009.091s.009.059.014.086a.792.792,0,0,0,.036.163,1.491,1.491,0,0,0,.3.562c.036.036.063.073.1.1s.059.059.086.082c.054.045.1.073.127.1l-.032,0c.122.054.24.131.363.172a.5.5,0,0,0,.34.023c.014,0,.027,0,.036,0h.091c.018,0,.032,0,.05,0s.036,0,.059-.009.045-.014.068-.018c.05-.018.1-.036.159-.063a1.871,1.871,0,0,0,.385-.267,4.519,4.519,0,0,0,.462-.467c.172-.195.345-.394.512-.585l.15-.163c.05-.054.1-.1.154-.159.1-.1.208-.2.317-.286a4.746,4.746,0,0,1,.634-.453c.1-.059.2-.109.3-.154s.177-.077.254-.109a3.3,3.3,0,0,1,.317-.1,1.89,1.89,0,0,0,.186-.045.368.368,0,0,0,.1-.032c.014-.009.023-.014.109-.023a1.128,1.128,0,0,1,.2-.009,1.923,1.923,0,0,1,.376.041.565.565,0,0,0,.177.014c.014,0,0-.023-.072-.045a2.589,2.589,0,0,1,.276.077,3.726,3.726,0,0,1,.34.154,2.756,2.756,0,0,1,.295.195,2.423,2.423,0,0,1,.218.213,3.883,3.883,0,0,1,.589.635c.163.218.313.44.444.63a2.659,2.659,0,0,0,.367.435.506.506,0,0,0,.236.127.537.537,0,0,0,.263-.032,1.618,1.618,0,0,0,.422-.227,4.561,4.561,0,0,0,.784-.739l-.014.032c.068-.082.159-.186.272-.331s.263-.345.422-.544c.313-.4.68-.875,1.047-1.346.739-.943,1.478-1.886,1.786-2.262l.077-.181c.163-.131.254-.3.453-.5.086-.118.018-.1-.032-.045.177-.168.308-.4.417-.485l-.009.041c.281-.258.308-.517.612-.8l.009.009a1.689,1.689,0,0,0,.29-.426c.15-.15.063.032.19-.091,0-.1.145-.213.267-.354-.127.163-.263.349-.213.372.154-.2.082,0,.227-.222l-.041-.055a.792.792,0,0,1,.24-.258c-.027.023-.1.1-.168.186.1.077.947,1.677,1.011,1.763-.159.317-.557.648-.712,1.024a.014.014,0,0,1,.009,0c0,.027-.145.195-.045.136a1.088,1.088,0,0,0-.168.186c.059-.1.113-.2.1-.222-.344.413-.694.87-1.047,1.274a1.054,1.054,0,0,0-.231.453l-.027-.041-.208.245c.077-.014.1.077.2-.014.018.023-.064.091-.127.177.018-.032.041-.122-.009-.072-.159.19-.023.086-.19.331,0-.009.068-.2-.109-.036-.2.222-.825,1-1.446,1.777-.308.394-.616.784-.875,1.11-.127.159-.258.326-.372.458s-.2.231-.267.3c.041-.009-.018-.236.009-.263-.068.1-.127.186-.195.276.054-.027.113-.054.168-.086a4.286,4.286,0,0,1-1.165,1.12,3.2,3.2,0,0,1-1.111.476,3.053,3.053,0,0,1-.544.054c-.077,0-.15,0-.213,0l-.154-.014C265.841,496.2,265.9,496.211,265.968,496.22Zm18.171-5.312c0,.068,0,.136-.009.2s-.014.127-.018.186l0-.05a6.18,6.18,0,0,1-.1.63c-.027.127-.054.268-.1.413s-.086.3-.141.449a7.028,7.028,0,0,1-.39.952,7.638,7.638,0,0,1-.562.979,7.06,7.06,0,0,1-.73.9,6.385,6.385,0,0,1-.839.721c-.145.1-.285.19-.426.267s-.267.145-.394.209-.254.1-.363.15-.208.068-.295.1a2.266,2.266,0,0,1-.258.122c-.15.009-.285.041-.44.059l-.24.027h-.276c-.208.014-.122.05-.023.054l-.263-.013c-.086,0-.172,0-.254,0a2.215,2.215,0,0,1-.4-.059.266.266,0,0,0,.059-.009c-.132-.032-.249-.059-.367-.077s-.222-.041-.331-.063a1.688,1.688,0,0,1-.344-.091,1.657,1.657,0,0,1-.381-.177l.009,0c-.218-.14-.5-.249-.694-.381-.122-.1-.118-.122-.1-.136s.027-.018-.068-.118a.536.536,0,0,1-.227-.163c-.086-.1-.172-.209-.267-.322a3.245,3.245,0,0,0,.326.331c.1.077.172.118.181.1-.286-.258-.027-.091-.313-.363l-.068.018a.811.811,0,0,1-.109-.109c-.032-.045-.068-.1-.1-.141a.63.63,0,0,1-.109-.2c.023.045.118.186.213.322a2.607,2.607,0,0,1,.367-.091,4.457,4.457,0,0,0,.666-.2,3.419,3.419,0,0,0,.875-.5,2.179,2.179,0,0,1,.213.1c.072.041.159.077.236.118a1.091,1.091,0,0,0,.53.1s0,0-.009-.009c.041,0,.195.027.118-.027a.606.606,0,0,0,.2.041c-.1,0-.195.013-.2.036a3,3,0,0,0,.7.032,4.694,4.694,0,0,0,.684-.131c.254-.063.286-.236.34-.258l.014.05c.082-.036.163-.086.245-.127-.068-.018-.064-.109-.172-.068-.009-.032.077-.05.15-.109-.023.027-.064.1-.009.073.091-.054.1-.073.113-.1s.027-.05.118-.136c0,.009-.1.163.091.063a3.029,3.029,0,0,0,.585-.526,5.077,5.077,0,0,0,.725-1.079,5.676,5.676,0,0,0,.281-.644c.041-.1.077-.213.109-.313s.059-.19.077-.286a4.277,4.277,0,0,0,.118-.8c0,.032.163.131.163.168,0-.1-.023-.19-.032-.281l-.068.145c-.009-.041-.018-.1-.027-.186s-.018-.172-.032-.277a3.711,3.711,0,0,0-.163-.671,1.773,1.773,0,0,0-.29-.5c-.027-.027-.05-.054-.073-.077a.6.6,0,0,0-.068-.054c-.023-.014-.041-.032-.059-.041s-.032-.014-.045-.023c.014.014.032.023.041.041-.032-.023-.073-.032-.1-.054a.149.149,0,0,1-.045-.027c-.018,0-.036-.014-.05-.018a1.04,1.04,0,0,0-.213-.1.979.979,0,0,1,.113.018c0-.091-.109-.122-.236-.145.027.018.05.032.073.05-.145.036-.245-.045-.494-.018l.091.014a.753.753,0,0,1-.19.023c.127-.05-.1-.041-.145-.068.1.059-.154.1-.227.136-.059-.041-.222.122-.254.082-.073.05.009.054.036.045a.365.365,0,0,0-.122.05c-.041.027-.068.05-.131.1-.109.082-.236.181-.422.3a3,3,0,0,1-.376.2c-.027.023-.073.05-.385.313l-.1.018,0,.086a.429.429,0,0,0-.267.118c-.091.059-.163.113-.227.1-.023.082-.127.091-.209.236.1,0,.218-.15.313-.163-.059.054-.136.131-.227.222-.023.023-.041.045-.068.068a.262.262,0,0,1-.032.036c-.018.018-.032.036-.05.054-.063.077-.136.154-.209.236-.295.331-.644.725-.988,1.12-.689.793-1.36,1.6-1.591,1.876.068-.1.023-.1-.059-.027l-.154.231c.036-.014.082-.072.068-.027-.059.1-.186.181-.168.267-.023-.032-.141.118-.15.109-.032.145-.44.458-.435.653-.217.326-.118.027-.372.367l.054.073c-.009,0-.1.118-.227.29s-.29.394-.453.621c-.3.426-.6.848-.6.879a.354.354,0,0,0-.15.1c-.213.331-.44.639-.671,1.006.018-.041.041-.072,0-.054-.811,1.178-1.632,2.289-2.457,3.449-.154.222-.091,0-.222.195a1.485,1.485,0,0,0-.213.385c.027-.023.072-.086.063-.041a1.609,1.609,0,0,0-.168.2c.023-.077.082-.2-.014-.091l0-.014c-.014.018-.032.036-.045.054l-.1.158-.032-.041c-.811.6-1.741-.916-1.741-.916l.027-.063.372-.313a16.521,16.521,0,0,1,1.2-1.718,11.5,11.5,0,0,0,.639-1l.027.041c.218-.331.462-.82.585-1.024l.014.014c.086-.131.286-.5.186-.512.24-.3.272-.195.512-.621l-.05.054c.15-.236.635-.9,1.12-1.546.245-.322.489-.644.693-.907s.358-.471.426-.571l-.014.045a7.221,7.221,0,0,1,.431-.6,4.94,4.94,0,0,0,.422-.612c.281-.322,1.011-1.192,1.768-2.058.19-.213.381-.435.567-.639s.367-.413.535-.6a9.267,9.267,0,0,1,.965-.884c.363-.277.367-.29.376-.313s.009-.041.385-.276c.1-.064.131-.122-.014-.059a5.211,5.211,0,0,1,.839-.426l.072-.045.091-.05c.063-.036.127-.068.195-.1a1.723,1.723,0,0,1,.208-.1c.073-.032.145-.064.222-.091a4.136,4.136,0,0,1,1.047-.231,3.487,3.487,0,0,1,1.242.1,3.141,3.141,0,0,1,.639.245q.149.082.3.177l.073.045.068.054.14.1a3.516,3.516,0,0,1,.843,1.043,4.484,4.484,0,0,1,.394,1.111c.023.091.032.177.045.263s.032.172.036.254a4.439,4.439,0,0,1,.027.48c0,.077,0,.15,0,.222S284.144,490.84,284.139,490.908Zm-15.733,11.626.14-.2C268.525,502.3,268.511,502.389,268.407,502.534Z" transform="translate(0)"/>
    <g id="Group_11" data-name="Group 11" transform="translate(259.409 485.65)">
      <g id="Group_9" data-name="Group 9" transform="translate(0)">
        <path id="Path_18" data-name="Path 18" class="cls-2" d="M271.2,504.441a1.3,1.3,0,0,0-.431.153A1.184,1.184,0,0,0,271.2,504.441Z" transform="translate(-270.765 -502.841)"/>
        <path id="Path_19" data-name="Path 19" class="cls-2" d="M270.76,504.778l0,0,.005,0Z" transform="translate(-270.758 -503.025)"/>
        <path id="Path_20" data-name="Path 20" class="cls-2" d="M301.831,500.91l-.083.109A.971.971,0,0,0,301.831,500.91Z" transform="translate(-287.702 -500.91)"/>
      </g>
      <g id="Group_10" data-name="Group 10" transform="translate(8.683 9.832)">
        <path id="Path_21" data-name="Path 21" class="cls-2" d="M289.914,538.768a1.532,1.532,0,0,0,.321-.364A1.283,1.283,0,0,0,289.914,538.768Z" transform="translate(-289.914 -531.241)"/>
        <path id="Path_22" data-name="Path 22" class="cls-2" d="M290.625,538.395v0l0,.005Z" transform="translate(-290.301 -531.235)"/>
        <path id="Path_23" data-name="Path 23" class="cls-2" d="M304.675,522.6l.131.173C304.764,522.716,304.72,522.656,304.675,522.6Z" transform="translate(-297.984 -522.602)"/>
      </g>
    </g>
    <g id="Group_12" data-name="Group 12" transform="translate(299.169 483.503)">
      <path id="Path_24" data-name="Path 24" class="cls-3" d="M358.479,499.512a1.655,1.655,0,0,1,1.655-1.655h6.334a6.432,6.432,0,0,1,4.657,1.578,3.989,3.989,0,0,1,1.2,2.952v.05a4.241,4.241,0,0,1-2.545,3.97c2.087.713,3.537,1.908,3.537,4.325v.051c0,3.181-2.621,4.886-6.59,4.886h-8.244Zm10.712,3.383c0-1.4-1.12-2.264-3.129-2.264h-3.913a.592.592,0,0,0-.591.592v4.141h4.275c2.01,0,3.359-.789,3.359-2.417Zm-2.672,5.115h-4.37a.592.592,0,0,0-.591.592V512.9h5.191c2.137,0,3.435-.84,3.435-2.443V510.4C370.184,508.9,368.988,508.01,366.52,508.01Z" transform="translate(-358.479 -497.093)"/>
      <path id="Path_25" data-name="Path 25" class="cls-3" d="M399.136,496.172h1.434V513.1a1.645,1.645,0,0,1-1.645,1.645h-1.434v-16.93A1.645,1.645,0,0,1,399.136,496.172Z" transform="translate(-379.809 -496.172)"/>
      <path id="Path_26" data-name="Path 26" class="cls-3" d="M410.4,513.969v-.05a7.165,7.165,0,0,1,14.326-.051v.051a7.025,7.025,0,0,1-7.2,7A6.948,6.948,0,0,1,410.4,513.969Zm11.247,0v-.05a4.152,4.152,0,0,0-4.122-4.326,4.033,4.033,0,0,0-4.046,4.275v.051a4.141,4.141,0,0,0,4.1,4.3A4.031,4.031,0,0,0,421.649,513.969Z" transform="translate(-386.867 -502.035)"/>
      <path id="Path_27" data-name="Path 27" class="cls-3" d="M446.159,513.969v-.05a6.934,6.934,0,0,1,7-7.023,6.748,6.748,0,0,1,4.634,1.606.965.965,0,0,1,.089,1.4l-.63.672a.95.95,0,0,1-1.3.084,4.135,4.135,0,0,0-2.814-1.062,4.052,4.052,0,0,0-3.893,4.275v.051a4.065,4.065,0,0,0,4.02,4.3,4.354,4.354,0,0,0,2.875-1.087.946.946,0,0,1,1.26.073l.528.521a.966.966,0,0,1-.042,1.405,6.62,6.62,0,0,1-4.774,1.785A6.859,6.859,0,0,1,446.159,513.969Z" transform="translate(-406.417 -502.035)"/>
      <path id="Path_28" data-name="Path 28" class="cls-3" d="M480.2,496.172h1.6v11.095l4.547-4.859a3.46,3.46,0,0,1,2.526-1.1h2.24l-5.343,5.47,5.522,7.964h-2.235a2.607,2.607,0,0,1-2.154-1.139L483.7,508.92l-1.089,1.132a2.937,2.937,0,0,0-.82,2.035v1.179a1.481,1.481,0,0,1-1.481,1.481h-1.6V497.654A1.482,1.482,0,0,1,480.2,496.172Z" transform="translate(-424.218 -496.172)"/>
      <path id="Path_29" data-name="Path 29" class="cls-4" d="M508.018,497.8h1.307a2.85,2.85,0,0,1,2.713,1.977L515.652,511l3.962-12a1.83,1.83,0,0,1,1.738-1.256h0A1.83,1.83,0,0,1,523.089,499l3.962,12,3.613-11.229a2.851,2.851,0,0,1,2.713-1.977h1.206l-5.631,16.338a2.375,2.375,0,0,1-2.245,1.6h-1.029l-4.377-12.8-3.827,11.193a2.375,2.375,0,0,1-2.248,1.606h-1Z" transform="translate(-440.238 -497.032)"/>
      <path id="Path_30" data-name="Path 30" class="cls-3" d="M572.573,499.559a1.7,1.7,0,0,1,1.7-1.7H579.6c4.173,0,6.768,2.367,6.768,5.954v.051c0,3.995-3.206,6.081-7.125,6.081h-2.451a1.085,1.085,0,0,0-1.086,1.085v2.939a1.7,1.7,0,0,1-1.7,1.7h-1.428Zm6.768,7.561c2.367,0,3.842-1.323,3.842-3.181v-.051c0-2.087-1.5-3.181-3.842-3.181H576.8a1.1,1.1,0,0,0-1.1,1.1v4.211a1.1,1.1,0,0,0,1.1,1.1Z" transform="translate(-475.533 -497.093)"/>
    </g>
  </g>
</svg>
