<svg xmlns="http://www.w3.org/2000/svg" xmlns:xlink="http://www.w3.org/1999/xlink" width="146.156" height="59.487" viewBox="0 0 146.156 59.487">
  <defs>
    <style>
      .cls-1 {
        clip-path: url(#clip-path);
      }
    </style>
    <clipPath id="clip-path">
      <path id="path16" d="M0-732H146.156v59.487H0Z" transform="translate(0 731.998)"/>
    </clipPath>
  </defs>
  <g id="g10" transform="translate(0 731.998)">
    <g id="g12" transform="translate(0 -731.998)">
      <g id="g14" class="cls-1">
        <g id="g20" transform="translate(10.058 11.595)">
          <path id="path22" d="M-654.759-174.114a17.606,17.606,0,0,0-3.533,2.006,30.833,30.833,0,0,1-5.852,3.4,17.645,17.645,0,0,1-6.616,1.685c-.747.054-1.52.291-2.042-.315-.242-.28-.81-.112-1.2,0-1.072.3-2.131.607-3.174.906-.285-.15-.173-.312-.175-.461-.011-.927-.559-1.121-1.955-.679-.428.136-.828.3-1.232.463-.913.362-1.822.728-2.968,1.186.142-.3.193-.392.236-.49.165-.379.836-.8.014-1.128-.741-.3-1.205.177-1.7.386a35.753,35.753,0,0,1-4.51,1.842c.48-.5.805-.807,1.065-1.128.437-.539,1.635-1.1.789-1.67-.782-.526-1.988-.035-2.977.139-1.462.257-2.719.8-4.385,1.23a17.544,17.544,0,0,1,4.387-4.206c.357-.228.784-.5.139-.789a1.109,1.109,0,0,0-1.207.233c-1.916,1.232-3.816,2.474-5.782,3.679a31.488,31.488,0,0,1-4.672,2.315c-.73.294-1.057.207-1.225-.31-.235-.722-.662-.822-1.707-.415-.96.374-1.866.8-2.813,1.182-.5.2-1.044.593-1.6.457-.635-.155-.279-.644-.335-.989-.107-.654-.623-.831-1.583-.482-.747.271-1.432.6-2.144.908L-716.617-164c-.11-.653.355-1.139.777-1.606.814-.9,1.742-1.76,2.593-2.647a9.1,9.1,0,0,0,2.173-2.675c.236-.638-.3-.9-1.336-.677a12.538,12.538,0,0,0-1.535.462,42.884,42.884,0,0,0-6.828,3.107c-1.8,1.023-3.616,2.043-5.509,3.112.619-.822,1.255-1.587,1.778-2.379a66.143,66.143,0,0,1,4.561-5.575c.267-.319.874-.722.294-1.068-.617-.369-1.244.046-1.788.208-2.179.647-4.26,1.4-6.271,2.213a193.961,193.961,0,0,0-21.644,10.621c-.342.19-.6.533-1.2.437q4.485-3.766,8.948-7.514c4.029-3.378,8.574-6.537,12.268-10.057a17.868,17.868,0,0,0,3.919-4.872c1.179-2.449.139-4.316-3.06-5.6a15.679,15.679,0,0,0-5.508-1,34.931,34.931,0,0,0-9.609,1.358,21.316,21.316,0,0,0-4.686,1.614c-.288.154-.524.348-.277.541.331.259.633,0,.873-.114a31.248,31.248,0,0,1,5.263-1.655,30.081,30.081,0,0,1,8.37-1.074c6.221.156,9.364,2.849,7.364,6.306a25.587,25.587,0,0,1-5.222,5.8c-3.392,3.038-7.354,5.831-10.878,8.813-5.07,4.289-10.031,8.626-16.082,12.475-.308.2-.679.412-.278.672a1.225,1.225,0,0,0,1.181-.093,3.447,3.447,0,0,0,.685-.369c1.87-1.331,3.934-2.553,6.015-3.768a178.234,178.234,0,0,1,25.526-12.63,35.619,35.619,0,0,1,4.685-1.514c-.267.361-.415.573-.578.78-.894,1.138-2.053,2.194-2.848,3.365a51.249,51.249,0,0,1-5.33,6.657c-.252.264-.735.563-.049.8.637.222.915-.121,1.23-.381a58.69,58.69,0,0,1,11.38-7.106,22.892,22.892,0,0,1,4.919-1.851,14.207,14.207,0,0,1-2.176,2.532,16.322,16.322,0,0,0-4,4.929c-.116.277-.31.56.161.8a1.365,1.365,0,0,0,1.292-.122q2.034-.88,4.064-1.762l1.549-.592c.948,1.651,1.889,1.805,4.266.729.6-.27,1.186-.546,1.775-.822.4-.188.659-.271.987.105.734.841,1.4.937,2.737.4a39.049,39.049,0,0,0,4.692-2.424c.376-.21.742-.426,1.113-.639a9.549,9.549,0,0,1-1.185,1.884c-.228.3-.178.579.288.762a1.382,1.382,0,0,0,1.19-.151c.566-.292,1.145-.578,1.75-.84a19.061,19.061,0,0,1,4.705-1.357c-.613.737-1.158,1.332-1.6,1.951-.278.386-.481.866.123,1.178a2.174,2.174,0,0,0,1.9-.237c1.17-.472,2.314-.967,3.6-1.506a4.348,4.348,0,0,0-.056.6.656.656,0,0,0,.578.731,1.86,1.86,0,0,0,1.336-.2c.423-.19.8-.413,1.231-.6a15.964,15.964,0,0,1,3.03-1.207c.318,1.42,1.06,1.616,3.038.853.222-.086.439-.177.667-.258.7-.249,1.373-.589,2.107.018a2.01,2.01,0,0,0,1.254.152,21.442,21.442,0,0,0,9.235-2.512,7.644,7.644,0,0,1,1.866-.893c-.159.632-.3,1.163-.424,1.7a1.433,1.433,0,0,0,.35,1.372.906.906,0,0,0,.894.218c.364-.083.325-.258.261-.457-.645-2,.409-3.7,2.678-5.168.985-.636,2.068-1.219,3.124-1.815.32-.18.813-.323.358-.621a1.178,1.178,0,0,0-1.182.037" transform="translate(759.326 189.515)"/>
        </g>
        <g id="g24" transform="translate(119.542 29.696)">
          <path id="path26" d="M-40.375-28.1A15.7,15.7,0,0,1-45.4-25.727c-.239-1.2,1.929-2.721,4.7-3.338.439.121-.466.5.316.591.374.043.2.254.012.371m10.554.55c-.258-.366-.831-.124-1.276-.037-.411.081-.859.243-1.219-.024-.391-.29-.045-.549.23-.78.585-.491,1.212-.964,1.8-1.452.245-.2.39-.451.011-.635a1.04,1.04,0,0,0-1.137.146c-.5.4-.972.808-1.452,1.215a13.191,13.191,0,0,1-5.679,2.414,12.562,12.562,0,0,1,1.068-1.677c.246-.386.956-.858.161-1.2-.837-.365-1.079.377-1.829.519-.256-.657-.792-1.039-1.981-.847-2.2.357-5.436,2.575-5.68,3.9a.848.848,0,0,0,.643,1.047,2.446,2.446,0,0,0,1.734-.128,17.192,17.192,0,0,0,4.562-2.318c-.056.624-.418,1.174.449,1.487a3.645,3.645,0,0,0,2.487-.24c.841-.287,1.626-.63,2.451-.934.261-.1.534-.326.884-.037.825.684,1.865.427,2.862.19.45-.107,1.2-.191.907-.6" transform="translate(46.823 30.588)"/>
        </g>
      </g>
    </g>
  </g>
</svg>
